<svg xmlns="http://www.w3.org/2000/svg" viewBox="0 0 60 60" fill="#FFF">
    <path d="M51.768 44c.318-1.686.31-3.417-.024-5.1l4.58-11.053a.17.17 0 0 0 0-.022 18.78 18.78 0 0 1 3.215-5.582c.345-.364.483-.877.369-1.365l-1.878-8.11a.979.979 0 0 0-.1-.242c-.008-.015-.011-.033-.019-.047-.008-.014-.043-.048-.063-.074a1.008 1.008 0 0 0-.141-.165.929.929 0 0 0-.109-.066 1.016 1.016 0 0 0-.155-.094.988.988 0 0 0-.234-.057c-.023 0-.043-.015-.066-.017a1 1 0 0 0-.551.123c-.015.008-.033.011-.048.02h-.01l-7.061 4.407a1.492 1.492 0 0 0-.706 1.23 18.77 18.77 0 0 1-1.681 6.233v.011l-2.289 5.533a13.414 13.414 0 0 0-3.572-1.29c.472-3.255.645-6.546.518-9.833a10.914 10.914 0 0 0 2.482-8.012C43.6 4.6 38.333.391 38.108.214a1 1 0 0 0-1.585 1.043c.515 1.934.069 3.975-3.735 8.172a5.852 5.852 0 0 0-1.371 6.377 7.763 7.763 0 0 0 1.424 2.3 70.05 70.05 0 0 0-.563 4.433 50.082 50.082 0 0 0-.174 7.092 13.606 13.606 0 0 0-2.49 1.735l-4.85-20.74c0-.021-.02-.036-.026-.055a.948.948 0 0 0-.07-.193l-4.954-9.149a2.309 2.309 0 0 0-4.338 1.016L15 12.64c0 .075.009.15.025.223v.045l4.948 21.117c-.78.034-1.555.15-2.312.345l-5.443-13.145a2.021 2.021 0 0 0-2.61-1.069L1.289 23.6a2.006 2.006 0 0 0-1.083 2.613l7.382 17.808A7.995 7.995 0 0 0 8 60h44a8 8 0 1 0-.232-16zm-1.019-25.884l4.192-2.616-1.484 3.584a1 1 0 0 0 1.848.766l1.484-3.584 1.111 4.813a19.78 19.78 0 0 0-2.9 4.787 4.113 4.113 0 0 1-5.59-2.312 19.754 19.754 0 0 0 1.339-5.438zm-2.3 7.851a6.091 6.091 0 0 0 2.493 1.815 6.345 6.345 0 0 0 2.447.516 5.3 5.3 0 0 0 .606-.037l-3.191 7.7a13.572 13.572 0 0 0-4.294-5.309l1.939-4.685zm-13.7-7.142l5.024.307c.031.934.02 1.9-.011 2.881a21.02 21.02 0 0 1-5.01-.242c-.126-.018-.249-.032-.374-.049.1-.942.222-1.896.369-2.897h.002zm-.477-8.053c2.655-2.929 4.031-5.182 4.351-7.3a13.374 13.374 0 0 1 3.609 7.168 8.96 8.96 0 0 1-2.024 6.512c-1.975-.12-3.929-.24-5.861-.36a4.171 4.171 0 0 1-.077-6.02h.002zm-.076 12.943l.29.038c1.289.2 2.59.31 3.893.331.414 0 .85-.033 1.287-.067a62.884 62.884 0 0 1-.429 4.02c-.247-.013-.489-.037-.737-.037-1.51.003-3.008.26-4.432.763a48.264 48.264 0 0 1 .126-5.048h.002zm-7.735 11.694L23.6 23.222a1 1 0 0 0-1.947.456l2.571 10.969a11.326 11.326 0 0 0-2.18-.543l-4.389-18.73c.615.28 1.282.425 1.958.426.063 0 .13-.009.194-.012l.707 3.019a1 1 0 1 0 1.947-.456l-.708-3.021A4.736 4.736 0 0 0 23.5 14l4.462 19.079a13.415 13.415 0 0 0-1.501 2.33zm-6.11-21.7a3.32 3.32 0 0 1-3.339-1.337l.127-3.522c.348.065.701.098 1.055.1.342.001.683-.036 1.016-.113a5.094 5.094 0 0 0 1.854-.922l1.684 3.108a3.317 3.317 0 0 1-2.397 2.688v-.002zM17.612 2.027a.312.312 0 0 1 .344.154L20.1 6.146c-.387.35-.849.606-1.35.75a3.4 3.4 0 0 1-1.541-.073l.163-4.506a.31.31 0 0 1 .24-.29zM10.375 22l.764 1.846-3.7 1.532a1 1 0 0 0 .768 1.846l3.7-1.533.765 1.848-1.851.767a1 1 0 1 0 .766 1.848l1.851-.767.765 1.848L10.5 32.77a1 1 0 1 0 .766 1.848l3.7-1.532.809 1.953A11.609 11.609 0 0 0 9.3 42.92L2.052 25.444 10.375 22zM52 58H8a6 6 0 1 1 1.711-11.752A1 1 0 0 0 11 45.309 9.5 9.5 0 0 1 26.2 37.9a1 1 0 0 0 1.533-.45A11.5 11.5 0 0 1 50 41.5a11.394 11.394 0 0 1-.505 3.374 1 1 0 0 0 1.17 1.272A6.246 6.246 0 0 1 52 46a6 6 0 1 1 0 12z"/>
    <path d="M38.685 15.7a1 1 0 0 0 .8-.395 7.5 7.5 0 0 0 1.33-5.888 1 1 0 1 0-1.932.515 5.555 5.555 0 0 1-.992 4.166 1 1 0 0 0 .8 1.6l-.006.002zM37.37 46a4.916 4.916 0 0 0-2.145.5 6 6 0 0 0-10.365 5.89 1 1 0 0 0 1.84-.784A4.074 4.074 0 0 1 26.37 50a4 4 0 0 1 4-4 3.96 3.96 0 0 1 3.615 2.3c.022.033.045.064.07.094.016.034.033.068.053.1.018.022.044.032.064.053a.954.954 0 0 0 .155.13c.05.038.104.072.16.1a.99.99 0 0 0 .18.056.919.919 0 0 0 .188.029c.13-.001.259-.023.382-.064a.755.755 0 0 0 .079-.019.9.9 0 0 0 .093-.069 1.04 1.04 0 0 0 .105-.054A2.949 2.949 0 0 1 37.37 48a3 3 0 0 1 2.72 1.745 1 1 0 0 0 1.82-.83A5 5 0 0 0 37.37 46zM17.684 39.051C17.533 39.1 14 40.322 14 44a1 1 0 0 0 2 0 3.438 3.438 0 0 1 2.322-3.053 1.002 1.002 0 0 0-.638-1.9v.004zM31.757 37.97a1 1 0 0 0 1.212-.727A4.265 4.265 0 0 1 37.005 34 1 1 0 0 0 37 32a6.229 6.229 0 0 0-5.97 4.757 1 1 0 0 0 .727 1.213z"/>
</svg>
