<svg viewBox="-4 0 504 504" xmlns="http://www.w3.org/2000/svg">
  <path d="M472 456c-13.23 0-24 10.77-24 24s10.77 24 24 24 24-10.77 24-24-10.77-24-24-24zm0 32c-4.406 0-8-3.586-8-8s3.594-8 8-8 8 3.586 8 8-3.594 8-8 8zm0 0M48 24C48 10.77 37.23 0 24 0S0 10.77 0 24s10.77 24 24 24 24-10.77 24-24zm-32 0c0-4.406 3.594-8 8-8s8 3.594 8 8-3.594 8-8 8-8-3.594-8-8zm0 0M429.77 317.031l-15.801-31.597c3.351-6.801 6.222-13.672 8.582-20.512L456 253.77v-91.54l-33.45-11.152c-2.35-6.84-5.23-13.71-8.581-20.512l15.816-31.629-64.722-64.722-31.63 15.816c-6.8-3.351-13.671-6.23-20.511-8.582L301.77 8h-91.54l-11.152 33.45c-6.84 2.35-13.71 5.23-20.512 8.581l-31.628-15.816-64.723 64.722 15.816 31.63c-3.351 6.8-6.23 13.671-8.582 20.511L56 162.23v91.532l33.45 11.148c2.335 6.793 5.175 13.602 8.495 20.348L87.656 304H40v160h56v-24h60.688l24 24H224v8c0 17.648 14.352 32 32 32s32-14.352 32-32v-8h56.008c13.23 0 24-10.77 24-24 0-6.168-2.406-11.742-6.238-16 3.84-4.258 6.238-9.832 6.238-16s-2.406-11.742-6.238-16a23.829 23.829 0 0 0 5.87-12.344zm-315.68-35.32c-4.403-8.453-7.992-17.047-10.676-25.527l-1.23-3.887L72 242.23v-68.468l30.184-10.059 1.222-3.894c2.672-8.473 6.266-17.067 10.672-25.52l1.883-3.625-14.281-28.566 48.41-48.41 28.566 14.28 3.625-1.878c8.461-4.41 17.047-8 25.52-10.676l3.894-1.223L221.77 24h68.468l10.059 30.184 3.894 1.222c8.473 2.672 17.067 6.266 25.52 10.672l3.625 1.883 28.566-14.281 48.41 48.41-14.28 28.566 1.878 3.625c4.41 8.461 8 17.047 10.676 25.52l1.223 3.894L440 173.77v68.468l-30.184 10.059-1.23 3.887c-2.684 8.48-6.273 17.074-10.676 25.527l-1.879 3.625 14.297 28.586-47.273 47.637A24.747 24.747 0 0 0 361.77 360c3.84-4.258 6.238-9.832 6.238-16 0-12.48-9.61-22.64-21.793-23.777C380.152 293.023 400 252.207 400 208c0-79.398-64.602-144-144-144s-144 64.602-144 144c0 43.672 19.855 84.754 53.559 112h-68.43l18.933-34.496zM352.008 408c0 4.414-3.594 8-8 8H280c-4.406 0-8-3.586-8-8s3.594-8 8-8h64.008c4.406 0 8 3.586 8 8zm-115.32-200h38.624L288 195.312V160c8.824 0 16 7.176 16 16v36.688L276.687 240h-41.375L208 212.687V176c0-8.824 7.176-16 16-16v35.313zM240 256h32v32h-32zm48-4.688l32-32V176c0-17.648-14.352-32-32-32h-16v44.688L268.687 192h-25.375L240 188.687V144h-16c-17.648 0-32 14.352-32 32v43.313l32 32V288h-19.313l-.503.504C176.87 270.879 160 240.664 160 208c0-52.938 43.062-96 96-96s96 43.062 96 96c0 32.426-16.2 62.121-43.313 80H288zM368 208c0-61.762-50.238-112-112-112s-112 50.238-112 112c0 36.953 18.383 71.36 48.535 92.152l-11.52 11.52C147.794 287.609 128 249.098 128 208c0-70.574 57.426-128 128-128s128 57.426 128 128c0 39.535-17.871 76.016-48.383 100.2-.914-5.673-3.808-10.634-7.969-14.24C353.145 272.794 368 241.626 368 208zm-23.992 128c4.406 0 8 3.586 8 8s-3.594 8-8 8H280c-4.406 0-8-3.586-8-8s3.594-8 8-8zM280 384c-4.406 0-8-3.586-8-8s3.594-8 8-8h64.008c4.406 0 8 3.586 8 8s-3.594 8-8 8zM80 448H56V320h24zm107.312 0l-24-24H96v-88h83.312l32-32H312c4.406 0 8 3.586 8 8s-3.594 8-8 8h-83.313l-34.343 34.344 11.312 11.312L224 347.312V448zM256 488c-8.824 0-16-7.176-16-16V336h17.473c-.899 2.512-1.473 5.184-1.473 8 0 6.168 2.406 11.742 6.238 16-3.84 4.258-6.238 9.832-6.238 16s2.406 11.742 6.238 16c-3.84 4.258-6.238 9.832-6.238 16s2.406 11.742 6.238 16c-3.84 4.258-6.238 9.832-6.238 16 0 10.414 6.71 19.215 16 22.527V472c0 8.824-7.176 16-16 16zm88.008-40H280c-4.406 0-8-3.586-8-8s3.594-8 8-8h64.008c4.406 0 8 3.586 8 8s-3.594 8-8 8zm0 0M16 72h16v16H16zm0 0M16 112h16v16H16zm0 0M16 152h16v16H16zm0 0M464 336h16v16h-16zm0 0M464 376h16v16h-16zm0 0M464 416h16v16h-16zm0 0"/>
</svg>
