<svg xmlns="http://www.w3.org/2000/svg" viewBox="0 0 494 494">
  <path d="M67.26 310.08l-13.01 71.33c-1.667 9.244 5.432 17.69 14.76 17.69h71.69c8.28 0 15-6.72 15-15 0-8.28-6.72-15-15-15H86.99l7.57-41.48c-9.59-5.652-18.396-11.368-27.3-17.54zM15.46 107.04c8.29 0 15-6.71 15-15V30h62.05c8.28 0 15-6.72 15-15 0-8.28-6.72-15-15-15H15.46c-8.28 0-15 6.72-15 15v77.04c0 8.29 6.72 15 15 15zM478.54 0h-77.05c-8.28 0-15 6.72-15 15 0 8.28 6.72 15 15 15h62.05v62.04c0 8.29 6.71 15 15 15 8.28 0 15-6.71 15-15V15c0-8.28-6.72-15-15-15zM478.54 386.96c-8.29 0-15 6.71-15 15V464h-62.05c-8.28 0-15 6.72-15 15 0 8.28 6.72 15 15 15h77.05c8.28 0 15-6.72 15-15v-77.04c0-8.29-6.72-15-15-15zM92.51 464H30.46v-62.04c0-8.29-6.71-15-15-15-8.28 0-15 6.71-15 15V479c0 8.28 6.72 15 15 15h77.05c8.28 0 15-6.72 15-15 0-8.28-6.72-15-15-15zM45.049 254.488A436.312 436.312 0 0 0 73.23 277.38l4.52-24.8c1.49-8.15 9.3-13.54 17.45-12.06 8.15 1.48 13.55 9.3 12.06 17.45L100.32 296h.01c12.42 7.82 26.75 15.86 42.55 23.06-14.21-20.47-22.55-45.31-22.55-72.06 0-26.76 8.35-51.62 22.57-72.09-43.137 19.726-77.869 46.966-97.835 64.613-4.497 3.974-4.511 10.988-.016 14.965zM448.95 239.499c-28.673-25.429-62.782-48.593-97.83-64.56 14.21 20.47 22.55 45.31 22.55 72.06 0 26.76-8.35 51.62-22.57 72.09 43.139-19.727 77.872-46.969 97.837-64.615 4.5-3.976 4.506-10.99.013-14.975zM247 343.67c53.3 0 96.67-43.37 96.67-96.67S300.3 150.33 247 150.33 150.33 193.7 150.33 247s43.37 96.67 96.67 96.67zm0-159.36c34.57 0 62.69 28.12 62.69 62.69s-28.12 62.69-62.69 62.69-62.69-28.12-62.69-62.69 28.12-62.69 62.69-62.69z"/>
  <path d="M247 279.69c18.03 0 32.69-14.66 32.69-32.69 0-18.03-14.66-32.69-32.69-32.69s-32.69 14.66-32.69 32.69c0 18.03 14.66 32.69 32.69 32.69zM235.34 108.49c5.827 5.827 15.34 5.879 21.22 0l58.55-58.55c5.85-5.86 5.85-15.36 0-21.21-5.86-5.86-15.36-5.86-21.22 0l-47.94 47.94c-18.133-18.145-13.796-13.806-21.2-21.21-5.86-5.85-15.36-5.86-21.22 0s-5.86 15.36 0 21.22l31.81 31.81zM304.5 371.67H191.18c-8.29 0-15 6.71-15 15 0 8.28 6.71 15 15 15H304.5c8.28 0 15-6.72 15-15 0-8.29-6.72-15-15-15zM366.301 425.478H140.699c-8.284 0-15 6.716-15 15s6.716 15 15 15h225.602c8.284 0 15-6.716 15-15s-6.716-15-15-15z"/>
</svg>
