<svg xmlns="http://www.w3.org/2000/svg" viewBox="0 0 480 480">
  <path d="M208 152c-13.232 0-24 10.768-24 24h16c0-4.408 3.584-8 8-8s8 3.592 8 8h16c0-13.232-10.768-24-24-24zM272 152c-13.232 0-24 10.768-24 24h16c0-4.408 3.584-8 8-8s8 3.592 8 8h16c0-13.232-10.768-24-24-24zM240 368c-17.648 0-32 14.352-32 32s14.352 32 32 32 32-14.352 32-32-14.352-32-32-32zm0 48c-8.824 0-16-7.176-16-16s7.176-16 16-16 16 7.176 16 16-7.176 16-16 16z"/>
  <path d="M432 464V360c0-66.168-53.832-120-120-120h-8.712a96.32 96.32 0 0 0 8.064-8H320c22.056 0 40-17.944 40-40v-14.096c9.64-6.464 16-17.456 16-29.904 0-12.496-6.408-23.504-16.096-29.96C358.84 52.784 305.512 0 240 0S121.16 52.784 120.096 118.04C110.408 124.496 104 135.504 104 148c0 19.848 16.152 36 36 36h5.448c3.744 22.168 15.072 41.744 31.272 56H168c-66.168 0-120 53.832-120 120v104H0v16h480v-16h-48zm-88-272c0 12.136-9.088 22.088-20.792 23.672A95.14 95.14 0 0 0 334.552 184H340c1.368 0 2.672-.256 4-.408V192zm16-44c0 11.024-8.968 20-20 20h-4v-40h4c11.032 0 20 8.976 20 20zm-216 20h-4c-11.032 0-20-8.976-20-20s8.968-20 20-20h4v40zm-4-56c-1.24 0-2.408.24-3.616.368C140.32 58.584 185.232 16 240 16s99.68 42.584 103.616 96.368c-1.208-.128-2.376-.368-3.616-.368h-5.448c-7.648-45.328-47.08-80-94.552-80s-86.904 34.672-94.552 80H140zm179.992 15.8C262.256 125.768 224 102.16 224 80c0-4.416-3.576-8-8-8s-8 3.584-8 8c0 19.992-20.672 36.56-47.536 39.496C164.728 79.368 198.768 48 240 48c44.04 0 79.88 35.784 79.992 79.8zM160 168v-32.448c24.984-2.168 46.184-14.216 56.768-31.088C233.504 126.64 272.616 142.248 320 143.84V168c0 18.024-6.064 34.608-16.152 48H240v16h47.792a79.77 79.77 0 0 1-14.824 8.8c-20.992 9.536-44.952 9.536-65.952 0C179.336 228.208 160 200.352 160 168zm55.272 92.656C223.176 262.768 231.44 264 240 264s16.824-1.232 24.728-3.344L240 310.112l-24.728-49.456zM227.056 320h-14.112l-32-64h14.112l32 64zm57.888-64h14.112l-32 64h-14.112l32-64zM88 360v104H64V360c0-55.72 44.08-101.208 99.176-103.752L195.056 320H128c-22.056 0-40 17.944-40 40zm288 104H104V360c0-13.232 10.768-24 24-24h224c13.232 0 24 10.768 24 24v104zm40 0h-24V360c0-22.056-17.944-40-40-40h-67.056l31.88-63.752C371.92 258.792 416 304.28 416 360v104z"/>
  <path d="M344 392h16v56h-16zM344 360h16v16h-16zM416 72h16v16h-16zM416 104h16v16h-16zM416 136h16v16h-16zM48 168h16v16H48zM48 200h16v16H48zM48 232h16v16H48z"/>
</svg>
